<?xml version="1.0" standalone="no"?>
<svg xmlns:xlink="http://www.w3.org/1999/xlink" id="wave" style="transform:rotate(0deg); transition: 0.3s" viewBox="0 0 1440 490" version="1.1" xmlns="http://www.w3.org/2000/svg"><defs><linearGradient id="sw-gradient-0" x1="0" x2="0" y1="1" y2="0"><stop stop-color="rgba(243, 106, 62, 1)" offset="0%"/><stop stop-color="rgba(255, 179, 11, 1)" offset="100%"/></linearGradient></defs><path style="transform:translate(0, 0px); opacity:1" fill="url(#sw-gradient-0)" d="M0,441L21.8,408.3C43.6,376,87,310,131,269.5C174.5,229,218,212,262,196C305.5,180,349,163,393,138.8C436.4,114,480,82,524,65.3C567.3,49,611,49,655,89.8C698.2,131,742,212,785,220.5C829.1,229,873,163,916,138.8C960,114,1004,131,1047,187.8C1090.9,245,1135,343,1178,351.2C1221.8,359,1265,278,1309,228.7C1352.7,180,1396,163,1440,147C1483.6,131,1527,114,1571,98C1614.5,82,1658,65,1702,49C1745.5,33,1789,16,1833,49C1876.4,82,1920,163,1964,228.7C2007.3,294,2051,343,2095,334.8C2138.2,327,2182,261,2225,261.3C2269.1,261,2313,327,2356,359.3C2400,392,2444,392,2487,400.2C2530.9,408,2575,425,2618,375.7C2661.8,327,2705,212,2749,155.2C2792.7,98,2836,98,2880,122.5C2923.6,147,2967,196,3011,196C3054.5,196,3098,147,3120,122.5L3141.8,98L3141.8,490L3120,490C3098.2,490,3055,490,3011,490C2967.3,490,2924,490,2880,490C2836.4,490,2793,490,2749,490C2705.5,490,2662,490,2618,490C2574.5,490,2531,490,2487,490C2443.6,490,2400,490,2356,490C2312.7,490,2269,490,2225,490C2181.8,490,2138,490,2095,490C2050.9,490,2007,490,1964,490C1920,490,1876,490,1833,490C1789.1,490,1745,490,1702,490C1658.2,490,1615,490,1571,490C1527.3,490,1484,490,1440,490C1396.4,490,1353,490,1309,490C1265.5,490,1222,490,1178,490C1134.5,490,1091,490,1047,490C1003.6,490,960,490,916,490C872.7,490,829,490,785,490C741.8,490,698,490,655,490C610.9,490,567,490,524,490C480,490,436,490,393,490C349.1,490,305,490,262,490C218.2,490,175,490,131,490C87.3,490,44,490,22,490L0,490Z"/><defs><linearGradient id="sw-gradient-1" x1="0" x2="0" y1="1" y2="0"><stop stop-color="rgba(161.972, 70.013, 70.013, 1)" offset="0%"/><stop stop-color="rgba(255, 179, 11, 1)" offset="100%"/></linearGradient></defs><path style="transform:translate(0, 50px); opacity:0.9" fill="url(#sw-gradient-1)" d="M0,147L21.8,155.2C43.6,163,87,180,131,228.7C174.5,278,218,359,262,334.8C305.5,310,349,180,393,147C436.4,114,480,180,524,171.5C567.3,163,611,82,655,57.2C698.2,33,742,65,785,106.2C829.1,147,873,196,916,196C960,196,1004,147,1047,163.3C1090.9,180,1135,261,1178,253.2C1221.8,245,1265,147,1309,155.2C1352.7,163,1396,278,1440,285.8C1483.6,294,1527,196,1571,204.2C1614.5,212,1658,327,1702,367.5C1745.5,408,1789,376,1833,302.2C1876.4,229,1920,114,1964,65.3C2007.3,16,2051,33,2095,57.2C2138.2,82,2182,114,2225,106.2C2269.1,98,2313,49,2356,89.8C2400,131,2444,261,2487,261.3C2530.9,261,2575,131,2618,98C2661.8,65,2705,131,2749,171.5C2792.7,212,2836,229,2880,253.2C2923.6,278,2967,310,3011,310.3C3054.5,310,3098,278,3120,261.3L3141.8,245L3141.8,490L3120,490C3098.2,490,3055,490,3011,490C2967.3,490,2924,490,2880,490C2836.4,490,2793,490,2749,490C2705.5,490,2662,490,2618,490C2574.5,490,2531,490,2487,490C2443.6,490,2400,490,2356,490C2312.7,490,2269,490,2225,490C2181.8,490,2138,490,2095,490C2050.9,490,2007,490,1964,490C1920,490,1876,490,1833,490C1789.1,490,1745,490,1702,490C1658.2,490,1615,490,1571,490C1527.3,490,1484,490,1440,490C1396.4,490,1353,490,1309,490C1265.5,490,1222,490,1178,490C1134.5,490,1091,490,1047,490C1003.6,490,960,490,916,490C872.7,490,829,490,785,490C741.8,490,698,490,655,490C610.9,490,567,490,524,490C480,490,436,490,393,490C349.1,490,305,490,262,490C218.2,490,175,490,131,490C87.3,490,44,490,22,490L0,490Z"/><defs><linearGradient id="sw-gradient-2" x1="0" x2="0" y1="1" y2="0"><stop stop-color="rgba(243, 106, 62, 1)" offset="0%"/><stop stop-color="rgba(255, 179, 11, 1)" offset="100%"/></linearGradient></defs><path style="transform:translate(0, 100px); opacity:0.8" fill="url(#sw-gradient-2)" d="M0,245L21.8,253.2C43.6,261,87,278,131,285.8C174.5,294,218,294,262,253.2C305.5,212,349,131,393,130.7C436.4,131,480,212,524,277.7C567.3,343,611,392,655,416.5C698.2,441,742,441,785,392C829.1,343,873,245,916,228.7C960,212,1004,278,1047,261.3C1090.9,245,1135,147,1178,89.8C1221.8,33,1265,16,1309,49C1352.7,82,1396,163,1440,187.8C1483.6,212,1527,180,1571,138.8C1614.5,98,1658,49,1702,49C1745.5,49,1789,98,1833,163.3C1876.4,229,1920,310,1964,318.5C2007.3,327,2051,261,2095,253.2C2138.2,245,2182,294,2225,302.2C2269.1,310,2313,278,2356,269.5C2400,261,2444,278,2487,245C2530.9,212,2575,131,2618,130.7C2661.8,131,2705,212,2749,220.5C2792.7,229,2836,163,2880,138.8C2923.6,114,2967,131,3011,187.8C3054.5,245,3098,343,3120,392L3141.8,441L3141.8,490L3120,490C3098.2,490,3055,490,3011,490C2967.3,490,2924,490,2880,490C2836.4,490,2793,490,2749,490C2705.5,490,2662,490,2618,490C2574.5,490,2531,490,2487,490C2443.6,490,2400,490,2356,490C2312.7,490,2269,490,2225,490C2181.8,490,2138,490,2095,490C2050.9,490,2007,490,1964,490C1920,490,1876,490,1833,490C1789.1,490,1745,490,1702,490C1658.2,490,1615,490,1571,490C1527.3,490,1484,490,1440,490C1396.4,490,1353,490,1309,490C1265.5,490,1222,490,1178,490C1134.5,490,1091,490,1047,490C1003.6,490,960,490,916,490C872.7,490,829,490,785,490C741.8,490,698,490,655,490C610.9,490,567,490,524,490C480,490,436,490,393,490C349.1,490,305,490,262,490C218.2,490,175,490,131,490C87.3,490,44,490,22,490L0,490Z"/><defs><linearGradient id="sw-gradient-3" x1="0" x2="0" y1="1" y2="0"><stop stop-color="rgba(243, 106, 62, 1)" offset="0%"/><stop stop-color="rgba(255, 179, 11, 1)" offset="100%"/></linearGradient></defs><path style="transform:translate(0, 150px); opacity:0.7" fill="url(#sw-gradient-3)" d="M0,196L21.8,163.3C43.6,131,87,65,131,81.7C174.5,98,218,196,262,245C305.5,294,349,294,393,302.2C436.4,310,480,327,524,318.5C567.3,310,611,278,655,253.2C698.2,229,742,212,785,228.7C829.1,245,873,294,916,310.3C960,327,1004,310,1047,318.5C1090.9,327,1135,359,1178,351.2C1221.8,343,1265,294,1309,253.2C1352.7,212,1396,180,1440,196C1483.6,212,1527,278,1571,277.7C1614.5,278,1658,212,1702,155.2C1745.5,98,1789,49,1833,81.7C1876.4,114,1920,229,1964,269.5C2007.3,310,2051,278,2095,261.3C2138.2,245,2182,245,2225,212.3C2269.1,180,2313,114,2356,89.8C2400,65,2444,82,2487,147C2530.9,212,2575,327,2618,375.7C2661.8,425,2705,408,2749,367.5C2792.7,327,2836,261,2880,220.5C2923.6,180,2967,163,3011,138.8C3054.5,114,3098,82,3120,65.3L3141.8,49L3141.8,490L3120,490C3098.2,490,3055,490,3011,490C2967.3,490,2924,490,2880,490C2836.4,490,2793,490,2749,490C2705.5,490,2662,490,2618,490C2574.5,490,2531,490,2487,490C2443.6,490,2400,490,2356,490C2312.7,490,2269,490,2225,490C2181.8,490,2138,490,2095,490C2050.9,490,2007,490,1964,490C1920,490,1876,490,1833,490C1789.1,490,1745,490,1702,490C1658.2,490,1615,490,1571,490C1527.3,490,1484,490,1440,490C1396.4,490,1353,490,1309,490C1265.5,490,1222,490,1178,490C1134.5,490,1091,490,1047,490C1003.6,490,960,490,916,490C872.7,490,829,490,785,490C741.8,490,698,490,655,490C610.9,490,567,490,524,490C480,490,436,490,393,490C349.1,490,305,490,262,490C218.2,490,175,490,131,490C87.3,490,44,490,22,490L0,490Z"/></svg>